<svg xmlns="http://www.w3.org/2000/svg" viewBox="0 0 531 531">
	<path d="M112 311V271H30c-16.569 0-30 13.431-30 30V501c0 16.569 13.431 30 30 30H296c16.569 0 30-13.431 30-30V465H292.084c-2.068 0-4.1-.173-6.084-.506V471c0 11.046-8.954 20-20 20H60c-11.046 0-20-8.954-20-20V331c0-11.046 8.954-20 20-20h52Zm60.906 106.777v.054-35.103c0-5.823 6.191-9.959 11.144-6.313 7.606 5.605 12.441 14.204 12.441 23.837s-4.835 18.231-12.441 23.838c-4.953 3.591-11.144-.49-11.144-6.313ZM97.434 378.483h14.151l16.038-18.504c1.769-2.068 4.481-3.265 7.37-3.265h.177c5.188 0 9.434 3.918 9.434 8.708v69.661c0 4.789-4.246 8.708-9.434 8.708h-.177c-2.889 0-5.601-1.198-7.37-3.266l-16.038-18.503H97.434c-5.189 0-9.434-3.919-9.434-8.708V387.19c0-4.789 4.245-8.707 9.434-8.707Zm107.193-37.171C224.792 354.265 238 375.871 238 400.252c0 24.382-13.267 45.987-33.373 58.94-5.306 3.429-12.677 2.177-16.391-2.721-3.715-4.898-2.418-11.701 2.948-15.13 14.033-9.034 23.231-24.109 23.231-41.089s-9.139-32-23.231-41.089c-5.366-3.429-6.663-10.177-2.948-15.129 3.714-4.953 11.026-6.15 16.391-2.722ZM345 145l-48-27.713v55.426L345 145Zm57-55V45h30c8.284 0 15 6.716 15 15V90H402ZM202 46h30V91H187V61c0-8.284 6.716-15 15-15ZM402 167V122h45v45H402Zm-215 1V123h45v45H187Zm0 62V200h45v45H202c-8.284 0-15-6.716-15-15ZM454 0H180c-16.569 0-30 13.431-30 30V260c0 16.569 13.431 30 30 30h72V259.117c0-15.383 7.155-28.925 18-36.82V40h94V215h14.497c8.469 0 16.69 2.952 23.503 8.381V199h45v30l4.266 4.072c7.289 6.957 16.614 10.786 26.26 10.786H484V30c0-16.569-13.431-30-30-30ZM332 294.444h34.856c3.211 0 6.36.774 9.19 2.234 15.454 9.245 20.954 18.228 34.645 27.105 0 0 .244.102.309.241v.364h.465l.035.027v-.027H490v59.887H332V294.444Zm10.712-39.924H322c-16.569 0-30 13.405-30 29.943V394.256c0 16.538 13.431 29.944 30 29.944H500c16.569 0 30-13.406 30-29.944V314.231c0-16.537-13.432-29.943-30-29.943H425.496c-7.22 0-14.199-2.599-19.654-7.322l-17.476-15.125c-5.455-4.722-12.434-7.321-19.654-7.321H348c-.89 0-1.771.041-2.642.117-.877-.077-1.76-.117-2.646-.117Z" fill="#000000"/>
</svg>