<svg width="23" height="20" viewBox="0 0 23 20" fill="none" xmlns="http://www.w3.org/2000/svg">
<path d="M22.3992 12.8255V19.1388C22.3992 19.3672 22.3104 19.5862 22.1522 19.7478C21.994 19.9093 21.7795 20 21.5558 20H12.8424C12.6189 19.9997 12.4046 19.9089 12.2467 19.7474C12.0887 19.5859 12 19.367 12 19.1388V11.6776C12 11.4493 12.0887 11.2304 12.2467 11.0689C12.4046 10.9075 12.6189 10.8166 12.8424 10.8163H15.3718C15.4827 10.8162 15.5925 10.8385 15.6949 10.8819C15.7973 10.9253 15.8903 10.9891 15.9684 11.0694L16.8059 11.9388H21.5528C21.7756 11.9388 21.9935 12.0551 22.1524 12.2163C22.2309 12.2962 22.2931 12.3912 22.3354 12.4957C22.3778 12.6003 22.3995 12.7124 22.3992 12.8255ZM20.8802 13.4929L16.5061 13.5133L15.4068 12.3469H13.507V18.4694H20.9022L20.8802 13.4929Z"/>
<path d="M21.795 0.133176C21.9215 0.249894 21.9948 0.425929 21.9948 0.611532V6.42834C21.9948 7.27407 21.2786 7.95908 20.3959 7.95908C19.5131 7.95908 18.7969 7.27407 18.7969 6.42834C18.7969 5.58261 19.5131 4.8976 20.3959 4.8976C20.5824 4.8976 20.7623 4.92822 20.9289 4.98562V2.75265L17.1979 3.70554V7.65293C17.1979 8.49867 16.4817 9.18367 15.599 9.18367C14.7162 9.18367 14 8.49867 14 7.65293C14 6.8072 14.7162 6.12219 15.599 6.12219C15.7855 6.12219 15.9654 6.15281 16.132 6.21021V1.83612C16.132 1.54911 16.3052 1.30036 16.55 1.23913L21.3469 0.0145433C21.5051 -0.0256386 21.67 0.01837 21.7966 0.135089L21.795 0.133176Z"/>
<path fill-rule="evenodd" clip-rule="evenodd" d="M1.58496 1.83671H13.9863V1.83964H14.0098C14.5563 1.83964 14.9998 2.28329 15 2.82988C14.9999 3.37652 14.5564 3.82011 14.0098 3.82011H10.9902C10.9469 3.82011 10.9042 3.81573 10.8623 3.81034H4.48438L4.45605 15.8318H5.96289C5.96967 15.8317 5.97659 15.8309 5.9834 15.8309H9.9873C10.5373 15.8311 10.9829 16.28 10.9834 16.8328C10.9831 17.3857 10.5374 17.8346 9.9873 17.8348H5.9834C5.91488 17.8348 5.84783 17.8275 5.7832 17.8142H1.5752C1.05129 17.8143 0.99262 17.8379 0.986328 17.448V2.19706C0.992616 1.81397 1.0519 1.83475 1.58496 1.83476V1.83671ZM2.28418 15.8318H3.25488V14.8309H2.28418V15.8318ZM2.28418 13.8289H3.25488L3.2832 12.8269H2.28418V13.8289ZM2.28418 11.825H3.2832V10.823H2.28418V11.825ZM2.28418 9.82109H3.2832V8.81913H2.28418V9.82109ZM2.28418 7.81718H3.2832V6.8162H2.28418V7.81718ZM2.28418 5.81425H3.2832V4.8123H2.28418V5.81425ZM2.28418 3.81034H3.2832V2.80839H2.28418V3.81034Z"/>
<path d="M8.74121 6.58964C8.81094 6.58824 8.88021 6.60503 8.94141 6.63847L14.0889 9.46269C14.1514 9.49726 14.2039 9.54864 14.2402 9.61015C14.2764 9.6716 14.2959 9.74196 14.2959 9.81327C14.2958 9.8787 14.2777 9.94218 14.2471 9.9998H11.9639C11.7082 10.0002 11.4629 10.1061 11.2822 10.2937C11.1015 10.4815 11 10.7363 11 11.0017V11.8572L8.94141 12.9871C8.88034 13.0202 8.81163 13.0371 8.74219 13.0359C8.67279 13.0347 8.60476 13.0154 8.54492 12.9803C8.4851 12.9451 8.43518 12.8948 8.40039 12.8348C8.36562 12.7747 8.34742 12.7059 8.34668 12.6365V6.99003C8.3467 6.88485 8.38801 6.78363 8.46191 6.70878C8.5358 6.63406 8.63613 6.59098 8.74121 6.58964Z"/>
</svg>
